<svg xmlns="http://www.w3.org/2000/svg" width="24" height="16" viewBox="0 0 24 16">
  <g id="Group_9887" data-name="Group 9887" transform="translate(-330 -22)">
    <g id="Nav" transform="translate(330 22)">
      <path id="Combined_Shape" data-name="Combined Shape" d="M1,16a1,1,0,0,1,0-2H23a1,1,0,1,1,0,2ZM1,9A.944.944,0,0,1,0,8,.944.944,0,0,1,1,7H23a.945.945,0,0,1,1,1,.945.945,0,0,1-1,1ZM1,2A.944.944,0,0,1,0,1,.944.944,0,0,1,1,0H23a.945.945,0,0,1,1,1,.945.945,0,0,1-1,1Z" fill="#1b1b1b"/>
    </g>
  </g>
</svg>
