<svg xmlns="http://www.w3.org/2000/svg" width="475.998" height="713.997" viewBox="0 0 475.998 713.997">
  <g id="Group_2869" data-name="Group 2869" opacity="0.02">
    <path id="Path_4216" data-name="Path 4216" d="M125.7,239.1a119,119,0,1,0-119-119A119.085,119.085,0,0,0,125.7,239.1Zm0-162.086c22.569,0,43.086,18.465,43.086,43.086s-20.517,43.086-43.086,43.086S82.613,144.72,82.613,120.1,101.079,77.013,125.7,77.013Z" transform="translate(73.317 -1.1)" fill="#6b1d57"/>
    <path id="Path_4217" data-name="Path 4217" d="M199.865,203.865H41.883a33.977,33.977,0,0,0-24.621,10.259C9.055,222.33,2.9,232.589,2.9,244.9v119H82.917V283.882h119c75.914,0,143.62-30.776,192.861-80.017C446.071,154.624,476.846,82.814,476.846,6.9H396.829C396.829,115.641,308.606,203.865,199.865,203.865Z" transform="translate(-0.848 112.1)" fill="#6b1d57"/>
    <path id="Path_4218" data-name="Path 4218" d="M470.591,104.217C454.177,59.079,411.091,24.2,359.8,24.2s-96.431,32.827-110.793,80.017H2.8v80.017H244.9c16.414,45.138,59.5,80.017,110.793,80.017s96.431-32.827,110.793-80.017a128.831,128.831,0,0,0,6.155-38.983C478.8,128.837,474.695,116.527,470.591,104.217Zm-110.793-4.1c22.569,0,43.086,18.465,43.086,43.086s-18.465,43.086-43.086,43.086c-22.569,0-43.086-18.465-43.086-43.086S335.178,100.113,359.8,100.113Z" transform="translate(-2.8 449.746)" fill="#6b1d57"/>
  </g>
</svg>
